<?xml version="1.0"?>
<svg xmlns="http://www.w3.org/2000/svg" xmlns:xlink="http://www.w3.org/1999/xlink" version="1.1" id="Layer_1" x="0px" y="0px" viewBox="0 0 512 512" style="enable-background:new 0 0 512 512;" xml:space="preserve" width="512px" height="512px" class=""><g><g>
	<path d="M460.8,0H51.2C22.924,0,0,22.924,0,51.2s22.924,51.2,51.2,51.2h409.6   c28.276,0,51.2-22.924,51.2-51.2S489.076,0,460.8,0z" data-original="#3D6DEB" class="active-path" data-old_color="#a0acbf" fill="#ffffff"/>
	<path d="M460.8,204.8H51.2C22.924,204.8,0,227.724,0,256c0,28.276,22.924,51.2,51.2,51.2h409.6   c28.276,0,51.2-22.924,51.2-51.2C512,227.724,489.076,204.8,460.8,204.8z" data-original="#3D6DEB" class="active-path" data-old_color="#a0acbf" fill="#ffffff"/>
	<path d="M460.8,409.6H51.2C22.924,409.6,0,432.524,0,460.8C0,489.076,22.924,512,51.2,512h409.6   c28.276,0,51.2-22.924,51.2-51.2C512,432.524,489.076,409.6,460.8,409.6z" data-original="#3D6DEB" class="active-path" data-old_color="#a0acbf" fill="#ffffff"/>
</g></g> </svg>
